<mxfile host="app.diagrams.net" modified="2024-04-21T05:42:04.033Z" agent="Mozilla/5.0 (Windows NT 10.0; Win64; x64) AppleWebKit/537.36 (KHTML, like Gecko) Chrome/123.0.0.0 Safari/537.36" etag="bVA8dt660_7lsOGZsUYc" version="24.2.2" type="device">
  <diagram id="C5RBs43oDa-KdzZeNtuy" name="Page-1">
    <mxGraphModel dx="1434" dy="1941" grid="1" gridSize="10" guides="1" tooltips="1" connect="1" arrows="1" fold="1" page="1" pageScale="1" pageWidth="827" pageHeight="1169" math="0" shadow="0">
      <root>
        <mxCell id="WIyWlLk6GJQsqaUBKTNV-0" />
        <mxCell id="WIyWlLk6GJQsqaUBKTNV-1" parent="WIyWlLk6GJQsqaUBKTNV-0" />
        <mxCell id="fhi0YSJTu7YHmnWeW9PM-34" value="" style="rounded=0;whiteSpace=wrap;html=1;" vertex="1" parent="WIyWlLk6GJQsqaUBKTNV-1">
          <mxGeometry x="850" y="-20" width="340" height="640" as="geometry" />
        </mxCell>
        <mxCell id="fhi0YSJTu7YHmnWeW9PM-11" value="" style="rounded=0;whiteSpace=wrap;html=1;" vertex="1" parent="WIyWlLk6GJQsqaUBKTNV-1">
          <mxGeometry x="150" y="60" width="680" height="440" as="geometry" />
        </mxCell>
        <mxCell id="fhi0YSJTu7YHmnWeW9PM-4" value="" style="edgeStyle=orthogonalEdgeStyle;rounded=0;orthogonalLoop=1;jettySize=auto;html=1;" edge="1" parent="WIyWlLk6GJQsqaUBKTNV-1" source="fhi0YSJTu7YHmnWeW9PM-0" target="fhi0YSJTu7YHmnWeW9PM-1">
          <mxGeometry relative="1" as="geometry" />
        </mxCell>
        <mxCell id="fhi0YSJTu7YHmnWeW9PM-0" value="Actor" style="shape=umlActor;verticalLabelPosition=bottom;verticalAlign=top;html=1;" vertex="1" parent="WIyWlLk6GJQsqaUBKTNV-1">
          <mxGeometry x="30" y="115" width="50" height="90" as="geometry" />
        </mxCell>
        <mxCell id="fhi0YSJTu7YHmnWeW9PM-10" style="edgeStyle=orthogonalEdgeStyle;rounded=0;orthogonalLoop=1;jettySize=auto;html=1;entryX=0;entryY=0.5;entryDx=0;entryDy=0;curved=1;" edge="1" parent="WIyWlLk6GJQsqaUBKTNV-1" source="fhi0YSJTu7YHmnWeW9PM-1" target="fhi0YSJTu7YHmnWeW9PM-8">
          <mxGeometry relative="1" as="geometry">
            <Array as="points">
              <mxPoint x="340" y="160" />
              <mxPoint x="340" y="205" />
            </Array>
          </mxGeometry>
        </mxCell>
        <mxCell id="fhi0YSJTu7YHmnWeW9PM-37" style="edgeStyle=orthogonalEdgeStyle;rounded=0;orthogonalLoop=1;jettySize=auto;html=1;entryX=0;entryY=0.5;entryDx=0;entryDy=0;exitX=0.5;exitY=0;exitDx=0;exitDy=0;dashed=1;curved=1;" edge="1" parent="WIyWlLk6GJQsqaUBKTNV-1" source="fhi0YSJTu7YHmnWeW9PM-1" target="fhi0YSJTu7YHmnWeW9PM-36">
          <mxGeometry relative="1" as="geometry">
            <Array as="points">
              <mxPoint x="255" y="-70" />
              <mxPoint x="840" y="-70" />
              <mxPoint x="840" y="55" />
            </Array>
          </mxGeometry>
        </mxCell>
        <mxCell id="fhi0YSJTu7YHmnWeW9PM-40" style="edgeStyle=orthogonalEdgeStyle;rounded=0;orthogonalLoop=1;jettySize=auto;html=1;entryX=0;entryY=0.5;entryDx=0;entryDy=0;curved=1;dashed=1;" edge="1" parent="WIyWlLk6GJQsqaUBKTNV-1" source="fhi0YSJTu7YHmnWeW9PM-1" target="fhi0YSJTu7YHmnWeW9PM-39">
          <mxGeometry relative="1" as="geometry">
            <Array as="points">
              <mxPoint x="255" y="-20" />
              <mxPoint x="840" y="-20" />
              <mxPoint x="840" y="120" />
              <mxPoint x="880" y="120" />
              <mxPoint x="880" y="150" />
            </Array>
          </mxGeometry>
        </mxCell>
        <mxCell id="fhi0YSJTu7YHmnWeW9PM-1" value="登录或注册" style="ellipse;whiteSpace=wrap;html=1;" vertex="1" parent="WIyWlLk6GJQsqaUBKTNV-1">
          <mxGeometry x="190" y="130" width="130" height="60" as="geometry" />
        </mxCell>
        <mxCell id="fhi0YSJTu7YHmnWeW9PM-76" value="" style="edgeStyle=orthogonalEdgeStyle;rounded=0;orthogonalLoop=1;jettySize=auto;html=1;dashed=1;" edge="1" parent="WIyWlLk6GJQsqaUBKTNV-1" source="fhi0YSJTu7YHmnWeW9PM-5" target="fhi0YSJTu7YHmnWeW9PM-8">
          <mxGeometry relative="1" as="geometry" />
        </mxCell>
        <mxCell id="fhi0YSJTu7YHmnWeW9PM-5" value="学习规则" style="ellipse;whiteSpace=wrap;html=1;" vertex="1" parent="WIyWlLk6GJQsqaUBKTNV-1">
          <mxGeometry x="370" y="70" width="140" height="70" as="geometry" />
        </mxCell>
        <mxCell id="fhi0YSJTu7YHmnWeW9PM-15" style="edgeStyle=orthogonalEdgeStyle;rounded=0;orthogonalLoop=1;jettySize=auto;html=1;entryX=0;entryY=0.5;entryDx=0;entryDy=0;curved=1;" edge="1" parent="WIyWlLk6GJQsqaUBKTNV-1" source="fhi0YSJTu7YHmnWeW9PM-8" target="fhi0YSJTu7YHmnWeW9PM-14">
          <mxGeometry relative="1" as="geometry" />
        </mxCell>
        <mxCell id="fhi0YSJTu7YHmnWeW9PM-17" style="edgeStyle=orthogonalEdgeStyle;rounded=0;orthogonalLoop=1;jettySize=auto;html=1;curved=1;" edge="1" parent="WIyWlLk6GJQsqaUBKTNV-1" source="fhi0YSJTu7YHmnWeW9PM-8" target="fhi0YSJTu7YHmnWeW9PM-16">
          <mxGeometry relative="1" as="geometry">
            <Array as="points">
              <mxPoint x="570" y="205" />
              <mxPoint x="570" y="195" />
            </Array>
          </mxGeometry>
        </mxCell>
        <mxCell id="fhi0YSJTu7YHmnWeW9PM-29" style="edgeStyle=orthogonalEdgeStyle;rounded=0;orthogonalLoop=1;jettySize=auto;html=1;entryX=0;entryY=0.5;entryDx=0;entryDy=0;curved=1;" edge="1" parent="WIyWlLk6GJQsqaUBKTNV-1" source="fhi0YSJTu7YHmnWeW9PM-8" target="fhi0YSJTu7YHmnWeW9PM-20">
          <mxGeometry relative="1" as="geometry" />
        </mxCell>
        <mxCell id="fhi0YSJTu7YHmnWeW9PM-31" style="edgeStyle=orthogonalEdgeStyle;rounded=0;orthogonalLoop=1;jettySize=auto;html=1;entryX=0;entryY=0.5;entryDx=0;entryDy=0;curved=1;" edge="1" parent="WIyWlLk6GJQsqaUBKTNV-1" source="fhi0YSJTu7YHmnWeW9PM-8" target="fhi0YSJTu7YHmnWeW9PM-18">
          <mxGeometry relative="1" as="geometry">
            <Array as="points">
              <mxPoint x="580" y="205" />
              <mxPoint x="580" y="275" />
            </Array>
          </mxGeometry>
        </mxCell>
        <mxCell id="fhi0YSJTu7YHmnWeW9PM-32" style="edgeStyle=orthogonalEdgeStyle;rounded=0;orthogonalLoop=1;jettySize=auto;html=1;entryX=0;entryY=0.5;entryDx=0;entryDy=0;curved=1;" edge="1" parent="WIyWlLk6GJQsqaUBKTNV-1" source="fhi0YSJTu7YHmnWeW9PM-8" target="fhi0YSJTu7YHmnWeW9PM-22">
          <mxGeometry relative="1" as="geometry">
            <Array as="points">
              <mxPoint x="560" y="205" />
              <mxPoint x="560" y="445" />
            </Array>
          </mxGeometry>
        </mxCell>
        <mxCell id="fhi0YSJTu7YHmnWeW9PM-8" value="开始游戏" style="ellipse;whiteSpace=wrap;html=1;" vertex="1" parent="WIyWlLk6GJQsqaUBKTNV-1">
          <mxGeometry x="370" y="170" width="140" height="70" as="geometry" />
        </mxCell>
        <mxCell id="fhi0YSJTu7YHmnWeW9PM-9" value="&lt;font style=&quot;font-size: 15px;&quot;&gt;用户需求&lt;/font&gt;" style="text;html=1;align=center;verticalAlign=middle;whiteSpace=wrap;rounded=0;" vertex="1" parent="WIyWlLk6GJQsqaUBKTNV-1">
          <mxGeometry x="140" y="80" width="120" height="30" as="geometry" />
        </mxCell>
        <mxCell id="fhi0YSJTu7YHmnWeW9PM-12" value="玩家可以了解基&lt;div&gt;本的麻将规则&lt;/div&gt;" style="rounded=1;whiteSpace=wrap;html=1;arcSize=40;fontColor=#000000;fillColor=#ffffc0;strokeColor=#ff0000;" vertex="1" parent="WIyWlLk6GJQsqaUBKTNV-1">
          <mxGeometry x="490" y="10" width="120" height="40" as="geometry" />
        </mxCell>
        <mxCell id="fhi0YSJTu7YHmnWeW9PM-13" value="" style="edgeStyle=orthogonalEdgeStyle;html=1;verticalAlign=bottom;endArrow=open;endSize=8;strokeColor=#ff0000;rounded=0;entryX=1;entryY=0.5;entryDx=0;entryDy=0;" edge="1" source="fhi0YSJTu7YHmnWeW9PM-12" parent="WIyWlLk6GJQsqaUBKTNV-1" target="fhi0YSJTu7YHmnWeW9PM-5">
          <mxGeometry relative="1" as="geometry">
            <mxPoint x="550" y="110" as="targetPoint" />
          </mxGeometry>
        </mxCell>
        <mxCell id="fhi0YSJTu7YHmnWeW9PM-45" style="edgeStyle=orthogonalEdgeStyle;rounded=0;orthogonalLoop=1;jettySize=auto;html=1;entryX=0;entryY=0.5;entryDx=0;entryDy=0;dashed=1;curved=1;" edge="1" parent="WIyWlLk6GJQsqaUBKTNV-1" source="fhi0YSJTu7YHmnWeW9PM-14" target="fhi0YSJTu7YHmnWeW9PM-42">
          <mxGeometry relative="1" as="geometry">
            <mxPoint x="915" y="215" as="targetPoint" />
            <Array as="points">
              <mxPoint x="860" y="115" />
              <mxPoint x="860" y="255" />
            </Array>
          </mxGeometry>
        </mxCell>
        <mxCell id="fhi0YSJTu7YHmnWeW9PM-14" value="投色子" style="ellipse;whiteSpace=wrap;html=1;" vertex="1" parent="WIyWlLk6GJQsqaUBKTNV-1">
          <mxGeometry x="630" y="80" width="140" height="70" as="geometry" />
        </mxCell>
        <mxCell id="fhi0YSJTu7YHmnWeW9PM-52" style="edgeStyle=orthogonalEdgeStyle;rounded=0;orthogonalLoop=1;jettySize=auto;html=1;entryX=0;entryY=0.5;entryDx=0;entryDy=0;dashed=1;curved=1;" edge="1" parent="WIyWlLk6GJQsqaUBKTNV-1" source="fhi0YSJTu7YHmnWeW9PM-16" target="fhi0YSJTu7YHmnWeW9PM-42">
          <mxGeometry relative="1" as="geometry">
            <Array as="points">
              <mxPoint x="850" y="195" />
              <mxPoint x="850" y="255" />
            </Array>
          </mxGeometry>
        </mxCell>
        <mxCell id="fhi0YSJTu7YHmnWeW9PM-16" value="打牌" style="ellipse;whiteSpace=wrap;html=1;" vertex="1" parent="WIyWlLk6GJQsqaUBKTNV-1">
          <mxGeometry x="630" y="160" width="140" height="70" as="geometry" />
        </mxCell>
        <mxCell id="fhi0YSJTu7YHmnWeW9PM-54" style="edgeStyle=orthogonalEdgeStyle;rounded=0;orthogonalLoop=1;jettySize=auto;html=1;entryX=0;entryY=0.5;entryDx=0;entryDy=0;curved=1;dashed=1;" edge="1" parent="WIyWlLk6GJQsqaUBKTNV-1" source="fhi0YSJTu7YHmnWeW9PM-18" target="fhi0YSJTu7YHmnWeW9PM-42">
          <mxGeometry relative="1" as="geometry" />
        </mxCell>
        <mxCell id="fhi0YSJTu7YHmnWeW9PM-18" value="抓牌" style="ellipse;whiteSpace=wrap;html=1;" vertex="1" parent="WIyWlLk6GJQsqaUBKTNV-1">
          <mxGeometry x="630" y="240" width="140" height="70" as="geometry" />
        </mxCell>
        <mxCell id="fhi0YSJTu7YHmnWeW9PM-55" style="edgeStyle=orthogonalEdgeStyle;rounded=0;orthogonalLoop=1;jettySize=auto;html=1;entryX=0;entryY=0.5;entryDx=0;entryDy=0;strokeColor=none;curved=1;dashed=1;" edge="1" parent="WIyWlLk6GJQsqaUBKTNV-1" source="fhi0YSJTu7YHmnWeW9PM-20" target="fhi0YSJTu7YHmnWeW9PM-42">
          <mxGeometry relative="1" as="geometry" />
        </mxCell>
        <mxCell id="fhi0YSJTu7YHmnWeW9PM-56" style="edgeStyle=orthogonalEdgeStyle;rounded=0;orthogonalLoop=1;jettySize=auto;html=1;entryX=0;entryY=0.5;entryDx=0;entryDy=0;curved=1;dashed=1;" edge="1" parent="WIyWlLk6GJQsqaUBKTNV-1" source="fhi0YSJTu7YHmnWeW9PM-20" target="fhi0YSJTu7YHmnWeW9PM-42">
          <mxGeometry relative="1" as="geometry" />
        </mxCell>
        <mxCell id="fhi0YSJTu7YHmnWeW9PM-57" style="edgeStyle=orthogonalEdgeStyle;rounded=0;orthogonalLoop=1;jettySize=auto;html=1;entryX=0;entryY=0.5;entryDx=0;entryDy=0;curved=1;dashed=1;" edge="1" parent="WIyWlLk6GJQsqaUBKTNV-1" source="fhi0YSJTu7YHmnWeW9PM-20" target="fhi0YSJTu7YHmnWeW9PM-46">
          <mxGeometry relative="1" as="geometry" />
        </mxCell>
        <mxCell id="fhi0YSJTu7YHmnWeW9PM-20" value="吃、碰、杠" style="ellipse;whiteSpace=wrap;html=1;" vertex="1" parent="WIyWlLk6GJQsqaUBKTNV-1">
          <mxGeometry x="630" y="325" width="140" height="70" as="geometry" />
        </mxCell>
        <mxCell id="fhi0YSJTu7YHmnWeW9PM-58" style="edgeStyle=orthogonalEdgeStyle;rounded=0;orthogonalLoop=1;jettySize=auto;html=1;entryX=0;entryY=0.5;entryDx=0;entryDy=0;curved=1;dashed=1;" edge="1" parent="WIyWlLk6GJQsqaUBKTNV-1" source="fhi0YSJTu7YHmnWeW9PM-22" target="fhi0YSJTu7YHmnWeW9PM-46">
          <mxGeometry relative="1" as="geometry" />
        </mxCell>
        <mxCell id="fhi0YSJTu7YHmnWeW9PM-80" style="edgeStyle=orthogonalEdgeStyle;rounded=0;orthogonalLoop=1;jettySize=auto;html=1;entryX=0.5;entryY=0;entryDx=0;entryDy=0;curved=1;dashed=1;" edge="1" parent="WIyWlLk6GJQsqaUBKTNV-1" source="fhi0YSJTu7YHmnWeW9PM-22" target="fhi0YSJTu7YHmnWeW9PM-59">
          <mxGeometry relative="1" as="geometry">
            <Array as="points">
              <mxPoint x="843" y="445" />
              <mxPoint x="843" y="465" />
              <mxPoint x="985" y="465" />
            </Array>
          </mxGeometry>
        </mxCell>
        <mxCell id="fhi0YSJTu7YHmnWeW9PM-82" style="edgeStyle=orthogonalEdgeStyle;rounded=0;orthogonalLoop=1;jettySize=auto;html=1;entryX=0;entryY=0.5;entryDx=0;entryDy=0;curved=1;dashed=1;" edge="1" parent="WIyWlLk6GJQsqaUBKTNV-1" source="fhi0YSJTu7YHmnWeW9PM-22" target="fhi0YSJTu7YHmnWeW9PM-42">
          <mxGeometry relative="1" as="geometry">
            <Array as="points">
              <mxPoint x="860" y="445" />
              <mxPoint x="860" y="255" />
            </Array>
          </mxGeometry>
        </mxCell>
        <mxCell id="fhi0YSJTu7YHmnWeW9PM-22" value="和牌" style="ellipse;whiteSpace=wrap;html=1;" vertex="1" parent="WIyWlLk6GJQsqaUBKTNV-1">
          <mxGeometry x="630" y="410" width="140" height="70" as="geometry" />
        </mxCell>
        <mxCell id="fhi0YSJTu7YHmnWeW9PM-78" value="" style="edgeStyle=orthogonalEdgeStyle;rounded=0;orthogonalLoop=1;jettySize=auto;html=1;dashed=1;" edge="1" parent="WIyWlLk6GJQsqaUBKTNV-1" source="fhi0YSJTu7YHmnWeW9PM-24" target="fhi0YSJTu7YHmnWeW9PM-8">
          <mxGeometry relative="1" as="geometry" />
        </mxCell>
        <mxCell id="fhi0YSJTu7YHmnWeW9PM-24" value="查看分数" style="ellipse;whiteSpace=wrap;html=1;" vertex="1" parent="WIyWlLk6GJQsqaUBKTNV-1">
          <mxGeometry x="370" y="330" width="140" height="70" as="geometry" />
        </mxCell>
        <mxCell id="fhi0YSJTu7YHmnWeW9PM-33" style="edgeStyle=orthogonalEdgeStyle;rounded=0;orthogonalLoop=1;jettySize=auto;html=1;exitX=0.5;exitY=1;exitDx=0;exitDy=0;" edge="1" parent="WIyWlLk6GJQsqaUBKTNV-1" source="fhi0YSJTu7YHmnWeW9PM-11" target="fhi0YSJTu7YHmnWeW9PM-11">
          <mxGeometry relative="1" as="geometry" />
        </mxCell>
        <mxCell id="fhi0YSJTu7YHmnWeW9PM-35" value="&lt;font style=&quot;font-size: 15px;&quot;&gt;系统回应&lt;/font&gt;" style="text;html=1;align=center;verticalAlign=middle;whiteSpace=wrap;rounded=0;" vertex="1" parent="WIyWlLk6GJQsqaUBKTNV-1">
          <mxGeometry x="850" y="-30" width="70" height="40" as="geometry" />
        </mxCell>
        <mxCell id="fhi0YSJTu7YHmnWeW9PM-36" value="验证用户身份" style="ellipse;whiteSpace=wrap;html=1;" vertex="1" parent="WIyWlLk6GJQsqaUBKTNV-1">
          <mxGeometry x="915" y="20" width="140" height="70" as="geometry" />
        </mxCell>
        <mxCell id="fhi0YSJTu7YHmnWeW9PM-38" value="《include》" style="text;html=1;align=center;verticalAlign=middle;whiteSpace=wrap;rounded=0;fontSize=15;" vertex="1" parent="WIyWlLk6GJQsqaUBKTNV-1">
          <mxGeometry x="580" y="-100" width="70" height="30" as="geometry" />
        </mxCell>
        <mxCell id="fhi0YSJTu7YHmnWeW9PM-39" value="创建用户账户" style="ellipse;whiteSpace=wrap;html=1;" vertex="1" parent="WIyWlLk6GJQsqaUBKTNV-1">
          <mxGeometry x="915" y="115" width="140" height="70" as="geometry" />
        </mxCell>
        <mxCell id="fhi0YSJTu7YHmnWeW9PM-41" value="&lt;span style=&quot;font-size: 15px; text-wrap: wrap;&quot;&gt;《include》&lt;/span&gt;" style="text;html=1;align=center;verticalAlign=middle;resizable=0;points=[];autosize=1;strokeColor=none;fillColor=none;" vertex="1" parent="WIyWlLk6GJQsqaUBKTNV-1">
          <mxGeometry x="565" y="-50" width="100" height="30" as="geometry" />
        </mxCell>
        <mxCell id="fhi0YSJTu7YHmnWeW9PM-42" value="游戏管理" style="ellipse;whiteSpace=wrap;html=1;" vertex="1" parent="WIyWlLk6GJQsqaUBKTNV-1">
          <mxGeometry x="915" y="220" width="140" height="70" as="geometry" />
        </mxCell>
        <mxCell id="fhi0YSJTu7YHmnWeW9PM-46" value="规则判定" style="ellipse;whiteSpace=wrap;html=1;" vertex="1" parent="WIyWlLk6GJQsqaUBKTNV-1">
          <mxGeometry x="915" y="370" width="140" height="70" as="geometry" />
        </mxCell>
        <mxCell id="fhi0YSJTu7YHmnWeW9PM-59" value="计算分数" style="ellipse;whiteSpace=wrap;html=1;" vertex="1" parent="WIyWlLk6GJQsqaUBKTNV-1">
          <mxGeometry x="915" y="500" width="140" height="70" as="geometry" />
        </mxCell>
        <mxCell id="fhi0YSJTu7YHmnWeW9PM-62" value="&lt;span style=&quot;font-size: 15px; text-wrap: wrap;&quot;&gt;《include》&lt;/span&gt;" style="text;html=1;align=center;verticalAlign=middle;resizable=0;points=[];autosize=1;strokeColor=none;fillColor=none;" vertex="1" parent="WIyWlLk6GJQsqaUBKTNV-1">
          <mxGeometry x="830" y="420" width="100" height="30" as="geometry" />
        </mxCell>
        <mxCell id="fhi0YSJTu7YHmnWeW9PM-67" value="&lt;span style=&quot;font-size: 15px;&quot;&gt;《include》&lt;/span&gt;" style="text;html=1;align=center;verticalAlign=middle;whiteSpace=wrap;rounded=0;" vertex="1" parent="WIyWlLk6GJQsqaUBKTNV-1">
          <mxGeometry x="765" y="325" width="60" height="30" as="geometry" />
        </mxCell>
        <mxCell id="fhi0YSJTu7YHmnWeW9PM-69" value="&lt;span style=&quot;font-size: 15px;&quot;&gt;《include》&lt;/span&gt;" style="text;html=1;align=center;verticalAlign=middle;whiteSpace=wrap;rounded=0;" vertex="1" parent="WIyWlLk6GJQsqaUBKTNV-1">
          <mxGeometry x="780" y="250" width="60" height="30" as="geometry" />
        </mxCell>
        <mxCell id="fhi0YSJTu7YHmnWeW9PM-71" value="&lt;span style=&quot;font-size: 15px;&quot;&gt;《include》&lt;/span&gt;" style="text;html=1;align=center;verticalAlign=middle;whiteSpace=wrap;rounded=0;" vertex="1" parent="WIyWlLk6GJQsqaUBKTNV-1">
          <mxGeometry x="780" y="170" width="60" height="30" as="geometry" />
        </mxCell>
        <mxCell id="fhi0YSJTu7YHmnWeW9PM-72" value="&lt;span style=&quot;font-size: 15px;&quot;&gt;《include》&lt;/span&gt;" style="text;html=1;align=center;verticalAlign=middle;whiteSpace=wrap;rounded=0;" vertex="1" parent="WIyWlLk6GJQsqaUBKTNV-1">
          <mxGeometry x="780" y="90" width="60" height="30" as="geometry" />
        </mxCell>
        <mxCell id="fhi0YSJTu7YHmnWeW9PM-73" style="edgeStyle=orthogonalEdgeStyle;rounded=0;orthogonalLoop=1;jettySize=auto;html=1;exitX=0.5;exitY=1;exitDx=0;exitDy=0;" edge="1" parent="WIyWlLk6GJQsqaUBKTNV-1" source="fhi0YSJTu7YHmnWeW9PM-34" target="fhi0YSJTu7YHmnWeW9PM-34">
          <mxGeometry relative="1" as="geometry" />
        </mxCell>
        <mxCell id="fhi0YSJTu7YHmnWeW9PM-77" value="&lt;font style=&quot;font-size: 15px;&quot;&gt;《extends》&lt;/font&gt;" style="text;html=1;align=center;verticalAlign=middle;whiteSpace=wrap;rounded=0;" vertex="1" parent="WIyWlLk6GJQsqaUBKTNV-1">
          <mxGeometry x="450" y="140" width="60" height="30" as="geometry" />
        </mxCell>
        <mxCell id="fhi0YSJTu7YHmnWeW9PM-79" value="&lt;font style=&quot;font-size: 15px;&quot;&gt;《extends》&lt;/font&gt;" style="text;html=1;align=center;verticalAlign=middle;whiteSpace=wrap;rounded=0;" vertex="1" parent="WIyWlLk6GJQsqaUBKTNV-1">
          <mxGeometry x="440" y="280" width="60" height="30" as="geometry" />
        </mxCell>
        <mxCell id="fhi0YSJTu7YHmnWeW9PM-81" value="&lt;font style=&quot;font-size: 15px;&quot;&gt;《include》&lt;/font&gt;" style="text;html=1;align=center;verticalAlign=middle;whiteSpace=wrap;rounded=0;" vertex="1" parent="WIyWlLk6GJQsqaUBKTNV-1">
          <mxGeometry x="780" y="450" width="60" height="30" as="geometry" />
        </mxCell>
        <mxCell id="fhi0YSJTu7YHmnWeW9PM-83" value="&lt;font style=&quot;font-size: 15px;&quot;&gt;《include》&lt;/font&gt;" style="text;html=1;align=center;verticalAlign=middle;whiteSpace=wrap;rounded=0;" vertex="1" parent="WIyWlLk6GJQsqaUBKTNV-1">
          <mxGeometry x="860" y="310" width="60" height="30" as="geometry" />
        </mxCell>
        <mxCell id="fhi0YSJTu7YHmnWeW9PM-84" value="&lt;span style=&quot;font-size: 15px;&quot;&gt;《include》&lt;/span&gt;" style="text;html=1;align=center;verticalAlign=middle;whiteSpace=wrap;rounded=0;" vertex="1" parent="WIyWlLk6GJQsqaUBKTNV-1">
          <mxGeometry x="770" y="355" width="60" height="30" as="geometry" />
        </mxCell>
        <mxCell id="fhi0YSJTu7YHmnWeW9PM-85" value="管理游戏进程" style="rounded=1;whiteSpace=wrap;html=1;arcSize=40;fontColor=#000000;fillColor=#ffffc0;strokeColor=#ff0000;" vertex="1" parent="WIyWlLk6GJQsqaUBKTNV-1">
          <mxGeometry x="1070" y="235" width="120" height="40" as="geometry" />
        </mxCell>
        <mxCell id="fhi0YSJTu7YHmnWeW9PM-86" value="" style="edgeStyle=orthogonalEdgeStyle;html=1;verticalAlign=bottom;endArrow=open;endSize=8;strokeColor=#ff0000;rounded=0;entryX=1;entryY=0.5;entryDx=0;entryDy=0;" edge="1" source="fhi0YSJTu7YHmnWeW9PM-85" parent="WIyWlLk6GJQsqaUBKTNV-1" target="fhi0YSJTu7YHmnWeW9PM-42">
          <mxGeometry relative="1" as="geometry">
            <mxPoint x="1181" y="270" as="targetPoint" />
          </mxGeometry>
        </mxCell>
        <mxCell id="fhi0YSJTu7YHmnWeW9PM-91" value="判定是否可以吃、碰、杠与和牌" style="rounded=1;whiteSpace=wrap;html=1;arcSize=40;fontColor=#000000;fillColor=#ffffc0;strokeColor=#ff0000;" vertex="1" parent="WIyWlLk6GJQsqaUBKTNV-1">
          <mxGeometry x="1070" y="385" width="120" height="40" as="geometry" />
        </mxCell>
        <mxCell id="fhi0YSJTu7YHmnWeW9PM-92" value="" style="edgeStyle=orthogonalEdgeStyle;html=1;verticalAlign=bottom;endArrow=open;endSize=8;strokeColor=#ff0000;rounded=0;entryX=1;entryY=0.5;entryDx=0;entryDy=0;" edge="1" source="fhi0YSJTu7YHmnWeW9PM-91" parent="WIyWlLk6GJQsqaUBKTNV-1" target="fhi0YSJTu7YHmnWeW9PM-46">
          <mxGeometry relative="1" as="geometry">
            <mxPoint x="1130" y="485" as="targetPoint" />
          </mxGeometry>
        </mxCell>
        <mxCell id="fhi0YSJTu7YHmnWeW9PM-95" style="edgeStyle=orthogonalEdgeStyle;rounded=0;orthogonalLoop=1;jettySize=auto;html=1;entryX=0.5;entryY=1;entryDx=0;entryDy=0;" edge="1" parent="WIyWlLk6GJQsqaUBKTNV-1" source="fhi0YSJTu7YHmnWeW9PM-11" target="fhi0YSJTu7YHmnWeW9PM-11">
          <mxGeometry relative="1" as="geometry" />
        </mxCell>
        <mxCell id="fhi0YSJTu7YHmnWeW9PM-96" value="用户可以查看自&lt;div&gt;己的游戏积分&lt;/div&gt;" style="rounded=1;whiteSpace=wrap;html=1;arcSize=40;fontColor=#000000;fillColor=#ffffc0;strokeColor=#ff0000;" vertex="1" parent="WIyWlLk6GJQsqaUBKTNV-1">
          <mxGeometry x="180" y="345" width="120" height="40" as="geometry" />
        </mxCell>
        <mxCell id="fhi0YSJTu7YHmnWeW9PM-97" value="" style="edgeStyle=orthogonalEdgeStyle;html=1;verticalAlign=bottom;endArrow=open;endSize=8;strokeColor=#ff0000;rounded=0;entryX=0;entryY=0.5;entryDx=0;entryDy=0;" edge="1" source="fhi0YSJTu7YHmnWeW9PM-96" parent="WIyWlLk6GJQsqaUBKTNV-1" target="fhi0YSJTu7YHmnWeW9PM-24">
          <mxGeometry relative="1" as="geometry">
            <mxPoint x="240" y="450" as="targetPoint" />
          </mxGeometry>
        </mxCell>
      </root>
    </mxGraphModel>
  </diagram>
</mxfile>
